<svg xmlns="http://www.w3.org/2000/svg" version="1.1" viewBox="124.928 309.248 743.424 389.12" style="max-height: 500px" width="743.424" height="389.12">
<path transform="translate(266,324)" fill="#F9FAFD" d="M0 0 C8.72011047 -0.07008253 17.44012125 -0.12310263 26.1604538 -0.15543652 C30.21140116 -0.17096962 34.26215325 -0.19197614 38.31298828 -0.22631836 C42.23581305 -0.25936016 46.15845225 -0.27694537 50.08140564 -0.28463173 C51.56423355 -0.29009613 53.04705345 -0.30076135 54.52980042 -0.31719017 C71.2594079 -0.49486708 89.71160934 1.17063589 103.19140625 12.15625 C112.09034677 21.22817209 116.33780834 32.97900418 116.4375 45.5 C116.21633991 58.64593019 113.17450594 68.82549406 103.6875 78.3125 C93.03703704 85 93.03703704 85 88 85 C92.67181158 93.37616354 97.54137108 101.54441796 102.82421875 109.55078125 C104.94206664 112.82579381 106.79870565 116.2236464 108.67260742 119.64233398 C111.38387907 124.45799526 114.37761035 129.10938477 117.33398438 133.77734375 C117.80771484 134.53917969 118.28144531 135.30101562 118.76953125 136.0859375 C119.19854736 136.7670459 119.62756348 137.4481543 120.06958008 138.14990234 C121 140 121 140 121 143 C115.39514781 143.19806477 109.79233864 143.34306251 104.18481445 143.43945312 C102.27852903 143.47963662 100.37248945 143.53419687 98.46704102 143.60351562 C95.72350509 143.70080921 92.98322978 143.74597204 90.23828125 143.78125 C89.38913651 143.82254028 88.53999176 143.86383057 87.66511536 143.90637207 C85.20470642 143.90822939 83.32457961 143.81432636 81 143 C78.73180349 140.60601058 77.40600606 137.96084059 76 135 C75.47124268 134.1531665 74.94248535 133.30633301 74.39770508 132.43383789 C68.18948696 122.47319458 62.02478875 112.49781867 56.15942383 102.33032227 C52.79866311 95.7815651 52.79866311 95.7815651 47 92 C45.27204648 91.93197033 43.54164635 91.91504355 41.8125 91.9375 C40.91144531 91.94652344 40.01039063 91.95554687 39.08203125 91.96484375 C38.39496094 91.97644531 37.70789063 91.98804688 37 92 C37.00222061 92.6241832 37.00444122 93.24836639 37.00672913 93.89146423 C37.0287808 100.36342804 37.0439061 106.83538125 37.05493164 113.30737305 C37.05997349 115.72567172 37.06680678 118.14396733 37.07543945 120.56225586 C37.08751157 124.02979283 37.09322963 127.49728966 37.09765625 130.96484375 C37.10281754 132.05337143 37.10797882 133.14189911 37.11329651 134.26341248 C37.11337204 135.26437454 37.11344757 136.26533661 37.11352539 137.29663086 C37.115746 138.18265488 37.11796661 139.06867889 37.12025452 139.98155212 C37 142 37 142 36 143 C33.41810554 143.10091475 30.863535 143.13971499 28.28125 143.1328125 C27.12163757 143.13424759 27.12163757 143.13424759 25.93859863 143.13571167 C24.30102456 143.13639341 22.66344781 143.13453957 21.02587891 143.13037109 C18.51068079 143.12502271 15.99566127 143.13031626 13.48046875 143.13671875 C11.89322877 143.13605797 10.3059889 143.1347768 8.71875 143.1328125 C7.96146606 143.13483673 7.20418213 143.13686096 6.4239502 143.13894653 C1.11495132 143.11495132 1.11495132 143.11495132 0 142 C-0.09646028 140.16505514 -0.12187344 138.32635413 -0.12025452 136.48887634 C-0.12162918 135.2926918 -0.12300385 134.09650726 -0.12442017 132.86407471 C-0.12088057 131.52648901 -0.11724575 130.18890356 -0.11352539 128.85131836 C-0.11324352 127.45217389 -0.11340125 126.05302927 -0.1139679 124.65388489 C-0.11425588 120.84413541 -0.10835898 117.03441714 -0.10139394 113.22467494 C-0.09516059 109.24748691 -0.09455662 105.27029824 -0.09336853 101.29310608 C-0.09025516 93.75661461 -0.08204169 86.22013757 -0.07201904 78.68365246 C-0.06085808 70.10580172 -0.0553475 61.5279503 -0.05032361 52.9500941 C-0.03985908 35.30005454 -0.02225953 17.65002843 0 0 Z M37 32 C36.17344592 39.01572256 35.81750878 45.93762466 35.8125 53 C35.80025391 53.93972656 35.78800781 54.87945312 35.77539062 55.84765625 C35.77345703 56.74355469 35.77152344 57.63945312 35.76953125 58.5625 C35.76542236 59.36816406 35.76131348 60.17382812 35.75708008 61.00390625 C35.81997115 63.23097449 35.81997115 63.23097449 38 65 C42.18926395 65.46268623 46.41318772 65.32393272 50.625 65.3125 C51.78902344 65.32861328 52.95304687 65.34472656 54.15234375 65.36132812 C62.27490298 65.36592754 68.5942607 64.97096407 74.9375 59.4375 C78.61610989 55.09005194 78.33737191 51.61729674 78.27734375 46.0546875 C77.86948516 41.56249857 76.83956155 39.51208928 74 36 C68.57294439 32.60809025 64.01151244 31.87258721 57.703125 31.90234375 C55.89521484 31.90717773 55.89521484 31.90717773 54.05078125 31.91210938 C52.16939453 31.92467773 52.16939453 31.92467773 50.25 31.9375 C48.98027344 31.94201172 47.71054687 31.94652344 46.40234375 31.95117188 C43.26818164 31.96295444 40.13411459 31.97940584 37 32 Z"/>
<path transform="translate(638,324)" fill="#F6F7FD" d="M0 0 C12.54 0 25.08 0 38 0 C39.00951397 3.0285419 39.121045 5.04005342 39.11352539 8.20581055 C39.11344986 9.26668381 39.11337433 10.32755707 39.11329651 11.420578 C39.10813522 12.56440445 39.10297394 13.7082309 39.09765625 14.88671875 C39.0962413 16.05886429 39.09482635 17.23100983 39.09336853 18.43867493 C39.08776388 22.18830907 39.07521056 25.93788385 39.0625 29.6875 C39.0574856 32.22721268 39.05292259 34.7669263 39.04882812 37.30664062 C39.03864316 43.53780178 39.01906851 49.76883431 39 56 C55.17 55.67 71.34 55.34 88 55 C88.33 36.85 88.66 18.7 89 0 C97.8790625 -0.0309375 97.8790625 -0.0309375 106.9375 -0.0625 C109.74302368 -0.07615601 109.74302368 -0.07615601 112.60522461 -0.09008789 C114.07926359 -0.09300709 115.55330337 -0.09555564 117.02734375 -0.09765625 C117.79953247 -0.10277222 118.57172119 -0.10788818 119.36730957 -0.11315918 C121.24525187 -0.11346974 123.12309253 -0.06233569 125 0 C126.73683988 1.73683988 126.12612457 4.10228931 126.12698364 6.46643066 C126.13121338 8.2459185 126.13121338 8.2459185 126.13552856 10.06135559 C126.13249222 12.03128731 126.13249222 12.03128731 126.12939453 14.04101562 C126.13074855 15.42868597 126.13252848 16.81635596 126.13470459 18.20402527 C126.13927888 21.98284721 126.13748938 25.76164196 126.1343255 29.5404644 C126.13180188 33.48649038 126.13413945 37.43251397 126.13571167 41.37854004 C126.13753336 48.00643331 126.13512708 54.63431545 126.13037109 61.26220703 C126.12492847 68.93583203 126.12669113 76.60943047 126.1321975 84.28305483 C126.13672865 90.85968393 126.13737917 97.43630501 126.13475883 104.01293516 C126.13319607 107.94603123 126.13300227 111.8791148 126.13629532 115.81221008 C126.13917406 119.50901349 126.13719829 123.2057825 126.13140106 126.90258217 C126.12943784 128.91460243 126.13242735 130.92662558 126.13552856 132.93864441 C126.13270874 134.12496964 126.12988892 135.31129486 126.12698364 136.53356934 C126.1264181 138.08991215 126.1264181 138.08991215 126.12584114 139.67769623 C126 142 126 142 125 143 C122.34543807 143.10095564 119.71744824 143.13970998 117.0625 143.1328125 C115.86959351 143.13424759 115.86959351 143.13424759 114.65258789 143.13571167 C112.9679354 143.13639343 111.28328029 143.13453943 109.59863281 143.13037109 C107.01100803 143.12502275 104.42355684 143.13031619 101.8359375 143.13671875 C100.20312461 143.13605797 98.57031184 143.1347768 96.9375 143.1328125 C96.15834229 143.13483673 95.37918457 143.13686096 94.57641602 143.13894653 C89.11495105 143.11495105 89.11495105 143.11495105 88 142 C87.91175886 140.35303377 87.89308925 138.70228098 87.90234375 137.05297852 C87.90564697 135.99840958 87.9089502 134.94384064 87.91235352 133.85731506 C87.92065186 132.70944016 87.9289502 131.56156525 87.9375 130.37890625 C87.94317993 128.62355812 87.94317993 128.62355812 87.94897461 126.83274841 C87.96540587 121.80178674 87.99351689 116.77090455 88.02050781 111.73999023 C88.03851583 108.07796601 88.05066007 104.41595475 88.0625 100.75390625 C88.07494751 99.03513023 88.07494751 99.03513023 88.08764648 97.28163147 C88.09094971 96.22391037 88.09425293 95.16618927 88.09765625 94.07641602 C88.10551147 92.6752932 88.10551147 92.6752932 88.11352539 91.24586487 C88.14879627 88.96301844 88.14879627 88.96301844 87 87 C71.16 86.67 55.32 86.34 39 86 C39.01160156 90.03089844 39.02320313 94.06179688 39.03515625 98.21484375 C39.04158328 101.42077859 39.04700747 104.62671163 39.05175018 107.83264923 C39.05703969 111.22137231 39.0641128 114.61007056 39.07543945 117.9987793 C39.08834267 121.88329777 39.09322924 125.76780597 39.09765625 129.65234375 C39.10281754 130.87211411 39.10797882 132.09188446 39.11329651 133.34861755 C39.11337204 134.46970413 39.11344757 135.59079071 39.11352539 136.74584961 C39.115746 137.73846298 39.11796661 138.73107635 39.12025452 139.75376892 C39 142 39 142 38 143 C35.26105915 143.08858646 32.5474673 143.11523479 29.80859375 143.09765625 C28.98875504 143.0962413 28.16891632 143.09482635 27.32423401 143.09336853 C24.69528618 143.08775289 22.06642227 143.07519779 19.4375 143.0625 C17.65950643 143.05748701 15.88151154 143.05292376 14.10351562 143.04882812 C9.73564455 143.03777839 5.36783652 143.02050331 1 143 C-0.3239582 140.3520836 -0.12288893 138.37293043 -0.12025452 135.40658569 C-0.12162918 134.21744064 -0.12300385 133.02829559 -0.12442017 131.80311584 C-0.12082489 130.49185226 -0.11722961 129.18058868 -0.11352539 127.82958984 C-0.11324343 126.44014996 -0.11340142 125.05070993 -0.1139679 123.66127014 C-0.11425554 119.88257049 -0.10836413 116.10390239 -0.10139394 112.32521009 C-0.09515492 108.37872444 -0.09455617 104.43223811 -0.09336853 100.48574829 C-0.09025684 93.0094972 -0.08204562 85.53326068 -0.07201904 78.05701602 C-0.06085289 69.54685544 -0.05534619 61.03669419 -0.05032361 52.52652812 C-0.03986288 35.01767547 -0.0215194 17.5088428 0 0 Z"/>
<path transform="translate(748.892333984375,579.432373046875)" fill="#FDF800" d="M0 0 C1.07391495 -0.00073013 2.1478299 -0.00146027 3.25428772 -0.00221252 C6.78796692 0.00125833 10.32031211 0.04009834 13.85375977 0.0793457 C16.30997498 0.08867555 18.76619951 0.09579085 21.22242737 0.1007843 C27.67526102 0.11984025 34.12752858 0.16893026 40.58013916 0.2243042 C47.16931501 0.27552618 53.75858267 0.29830473 60.34790039 0.32348633 C73.26806325 0.37704927 86.18783447 0.46137983 99.10766602 0.56762695 C100.3967803 4.43496981 100.19283975 8.05250003 100.12939453 12.078125 C100.11978699 12.94663086 100.11017944 13.81513672 100.10028076 14.70996094 C100.06727685 17.5831713 100.02694972 20.45623028 99.98657227 23.3293457 C99.96227252 25.32045456 99.93842888 27.31156903 99.9150238 29.3026886 C99.85216847 34.54540397 99.78310586 39.78802003 99.71276855 45.03063965 C99.64209825 50.37951126 99.57727347 55.72845332 99.51196289 61.07739258 C99.38293185 71.5742148 99.24734586 82.07094142 99.10766602 92.56762695 C84.41703288 92.80178821 69.72664845 92.97784072 55.03452492 93.08574867 C48.21175174 93.13719704 41.39014157 93.20726473 34.56811523 93.32202148 C27.98050019 93.43278174 21.3937727 93.49052259 14.80518723 93.51639938 C12.29569902 93.53483195 9.78627451 93.57082856 7.27730179 93.62492752 C-13.45789496 94.05411365 -13.45789496 94.05411365 -18.5877533 90.37989807 C-21.07405531 87.90271323 -22.95068706 85.47585936 -24.89233398 82.56762695 C-27.0604874 80.61108969 -29.34384815 78.98729288 -31.70483398 77.25512695 C-42.37597756 69.39149496 -42.37597756 69.39149496 -43.43061829 65.66630554 C-43.71950573 63.36293801 -43.8469539 61.10711433 -43.90795898 58.78637695 C-43.93645935 57.93644165 -43.96495972 57.08650635 -43.99432373 56.21081543 C-44.04145487 54.41242305 -44.07419738 52.61360351 -44.09350586 50.81469727 C-44.14181611 48.09676273 -44.29655841 45.39825125 -44.45483398 42.68481445 C-44.67402334 35.42283046 -44.83076135 29.13388706 -39.65795898 23.5637207 C-36.54868 20.6973101 -33.21989387 18.23266635 -29.72387695 15.86083984 C-27.05365783 13.97545585 -24.76101931 11.8177334 -22.39233398 9.56762695 C-20.92090767 8.20282573 -19.41898068 6.87036547 -17.89233398 5.56762695 C-16.91364853 4.71308426 -15.93496307 3.85854156 -14.92662048 2.97810364 C-10.18713239 -0.35781169 -5.62767538 -0.10082099 0 0 Z"/>
<path transform="translate(493.125,492.015625)" fill="#FBFCFE" d="M0 0 C1.18996582 0.01649597 2.37993164 0.03299194 3.60595703 0.04998779 C6.09998613 0.08716267 8.59396776 0.1276621 11.08789062 0.17138672 C14.86583346 0.23422254 18.64363733 0.27567979 22.421875 0.31640625 C42.02253936 0.59882679 61.81834986 1.16137599 76.74609375 15.5859375 C84.46275466 24.27957016 86.22594771 33.51631822 86.1875 44.796875 C86.20361328 45.73080078 86.21972656 46.66472656 86.23632812 47.62695312 C86.24346681 57.91380022 83.78776808 67.15690225 76.875 74.984375 C72.04146923 79.01671943 66.72562773 81.74370906 60.875 83.984375 C62.37859517 89.55652179 65.12860328 93.83681182 68.25 98.609375 C73.2210378 106.33215603 78.01786233 114.13766314 82.68896484 122.04541016 C85.52964335 126.83018112 88.51192973 131.43423805 91.76025391 135.95458984 C92.875 137.984375 92.875 137.984375 92.875 141.984375 C87.27014781 142.18243977 81.66733864 142.32743751 76.05981445 142.42382812 C74.15352903 142.46401162 72.24748945 142.51857187 70.34204102 142.58789062 C67.59850509 142.68518421 64.85822978 142.73034704 62.11328125 142.765625 C61.26413651 142.80691528 60.41499176 142.84820557 59.54011536 142.89074707 C57.07831118 142.89260544 55.2003516 142.80100338 52.875 141.984375 C50.6098235 139.5855099 49.27273529 136.95140859 47.875 133.984375 C47.4015918 133.21794678 46.92818359 132.45151855 46.44042969 131.66186523 C45.16795353 129.58227408 43.8958565 127.50245648 42.625 125.421875 C42.14901367 124.64392578 41.67302734 123.86597656 41.18261719 123.06445312 C38.50785527 118.68562342 35.86102632 114.29216576 33.24926758 109.87548828 C32.1508738 108.02789692 31.03728077 106.19044765 29.91796875 104.35546875 C28.61330667 102.20265159 27.34133165 100.0294518 26.11328125 97.83203125 C25.28376953 96.45337891 25.28376953 96.45337891 24.4375 95.046875 C23.75880859 93.85771484 23.75880859 93.85771484 23.06640625 92.64453125 C20.00472156 89.97794552 20.00472156 89.97794552 10.875 90.984375 C10.545 107.814375 10.215 124.644375 9.875 141.984375 C-2.335 141.984375 -14.545 141.984375 -27.125 141.984375 C-27.125 95.454375 -27.125 48.924375 -27.125 0.984375 C-17.96838962 0.3303314 -9.1325407 -0.14516373 0 0 Z M9.875 31.984375 C9.77476591 34.25212391 9.74418659 36.52300663 9.7421875 38.79296875 C9.74123077 39.47488785 9.74027405 40.15680695 9.73928833 40.85939026 C9.73860661 42.30445447 9.74046031 43.74952172 9.74462891 45.19458008 C9.74996916 47.40908693 9.74468795 49.62339019 9.73828125 51.83789062 C9.73894219 53.23958378 9.74022369 54.64127681 9.7421875 56.04296875 C9.74331543 57.32486084 9.74444336 58.60675293 9.74560547 59.92749023 C9.66271016 62.90061804 9.66271016 62.90061804 10.875 64.984375 C14.85391352 65.10173377 18.8323746 65.17201154 22.8125 65.234375 C23.92947266 65.26789063 25.04644531 65.30140625 26.19726562 65.3359375 C33.19198474 65.41798699 38.89734172 64.85241839 44.875 60.984375 C48.63520382 56.8481508 50.12786614 52.55754472 49.875 46.984375 C49.01075836 42.34194422 47.82144287 38.95572426 44.5 35.546875 C36.8284496 30.98047595 29.27276878 30.82191148 20.5625 30.859375 C19.18481445 30.85357422 19.18481445 30.85357422 17.77929688 30.84765625 C16.4712207 30.84958984 16.4712207 30.84958984 15.13671875 30.8515625 C13.94502075 30.85325439 13.94502075 30.85325439 12.72924805 30.85498047 C10.85892619 30.7817264 10.85892619 30.7817264 9.875 31.984375 Z"/>
<path transform="translate(610.51953125,333.859375)" fill="#F8F9FD" d="M0 0 C3.50560054 3.02530566 6.07490741 6.20142099 8.48046875 10.140625 C8.86847656 10.73101562 9.25648438 11.32140625 9.65625 11.9296875 C13.25020853 18.07208935 13.99548558 25.13214267 14.48046875 32.140625 C12.50217803 34.11891572 8.65719848 33.39566432 5.9453125 33.45703125 C5.19206192 33.47781235 4.43881134 33.49859344 3.66273499 33.52000427 C1.24790885 33.58557925 -1.16702923 33.64442121 -3.58203125 33.703125 C-5.21550654 33.7463027 -6.84897035 33.78991673 -8.48242188 33.83398438 C-12.49467589 33.94126862 -16.50704289 34.04251321 -20.51953125 34.140625 C-20.84421387 33.448479 -21.16889648 32.75633301 -21.50341797 32.04321289 C-21.93928223 31.13821045 -22.37514648 30.23320801 -22.82421875 29.30078125 C-23.46593018 27.95318726 -23.46593018 27.95318726 -24.12060547 26.57836914 C-26.61414914 22.23316258 -29.80984394 20.71052077 -34.51953125 19.140625 C-42.95849353 18.52997648 -50.3815016 18.10201583 -57.51953125 23.140625 C-59.37632267 26.08154303 -59.52242481 27.08564732 -59.33203125 30.703125 C-58.49437786 34.24704317 -58.21789889 34.9646071 -55.51953125 37.140625 C-47.59583911 40.98246841 -38.91478301 42.41072478 -30.33203125 44.015625 C3.41870686 50.7083155 3.41870686 50.7083155 12.85546875 64.703125 C19.25807874 76.47394003 19.57916308 89.4917362 16.35546875 102.265625 C12.33751805 114.20301475 4.64806775 122.58847966 -6.33203125 128.390625 C-26.59698219 137.98577223 -51.94691008 137.82158542 -72.89453125 130.390625 C-84.89744576 125.13561765 -93.65810697 115.14163055 -98.51953125 103.140625 C-100.00095492 97.67075298 -99.51953125 93.06665957 -99.51953125 87.140625 C-87.30953125 87.140625 -75.09953125 87.140625 -62.51953125 87.140625 C-61.85953125 90.110625 -61.19953125 93.080625 -60.51953125 96.140625 C-57.4011109 101.26374415 -53.46925663 103.41958102 -47.70703125 104.828125 C-38.71233198 105.70995826 -31.12473901 105.40264716 -23.51953125 100.015625 C-20.81650871 96.1300301 -20.1339674 92.84450392 -20.51953125 88.140625 C-21.98994823 84.8321868 -23.4648269 83.61570455 -26.74609375 82.13769531 C-33.83866007 79.50936598 -40.82616565 77.97288208 -48.26953125 76.703125 C-81.54099839 70.62576897 -81.54099839 70.62576897 -91.2734375 58.19140625 C-97.98210519 47.15049547 -98.87724376 34.05418753 -96.39453125 21.640625 C-93.47868936 10.05901 -86.86910906 1.45843302 -76.95703125 -5.046875 C-54.05463762 -18.14396249 -20.79883441 -15.84114327 0 0 Z"/>
<path transform="translate(295.30859375,505.890625)" fill="#F8F9FD" d="M0 0 C10.64262832 9.6914322 15.38656267 23.21252402 17.69140625 37.109375 C17.36140625 37.769375 17.03140625 38.429375 16.69140625 39.109375 C12.40475175 39.25327127 8.11804969 39.39563164 3.83129883 39.53662109 C2.37555594 39.58471015 0.91982642 39.63320558 -0.53588867 39.68212891 C-2.63847454 39.75271932 -4.74110546 39.82180715 -6.84375 39.890625 C-8.10582275 39.93251953 -9.36789551 39.97441406 -10.66821289 40.01757812 C-14.21682123 40.10706084 -17.75903411 40.12537302 -21.30859375 40.109375 C-21.72109375 39.119375 -22.13359375 38.129375 -22.55859375 37.109375 C-23.13808919 35.77436916 -23.7217101 34.44114943 -24.30859375 33.109375 C-24.61023438 32.41457031 -24.911875 31.71976563 -25.22265625 31.00390625 C-28.18148657 24.59310722 -31.72936691 21.51278573 -38.32641602 18.75317383 C-41.7396456 17.64457838 -45.0559725 17.57994118 -48.62109375 17.609375 C-49.73605225 17.61142944 -49.73605225 17.61142944 -50.87353516 17.61352539 C-57.31461491 17.79224958 -61.87957022 19.67399704 -67.30859375 23.109375 C-68.29859375 23.439375 -69.28859375 23.769375 -70.30859375 24.109375 C-71.40580894 25.92229294 -71.40580894 25.92229294 -72.30859375 28.109375 C-72.71078125 28.83253906 -73.11296875 29.55570313 -73.52734375 30.30078125 C-81.15056417 44.40838733 -81.14560514 61.74134502 -77.30859375 77.109375 C-74.51372558 84.89351956 -70.26122582 91.43463621 -62.87109375 95.42578125 C-52.66321103 99.6840114 -42.803376 99.30274524 -32.6484375 95.1796875 C-27.26143444 92.89815743 -27.26143444 92.89815743 -24.30859375 88.109375 C-23.79296875 86.995625 -23.27734375 85.881875 -22.74609375 84.734375 C-21.04173221 80.8080682 -21.04173221 80.8080682 -20.30859375 75.109375 C-7.43859375 75.109375 5.43140625 75.109375 18.69140625 75.109375 C19.80252879 79.55386517 19.18718433 82.44064761 18.06640625 86.734375 C17.7873645 87.80679443 17.7873645 87.80679443 17.50268555 88.90087891 C13.63218197 103.11466515 5.18185413 114.14671448 -7.30859375 122.109375 C-19.99191978 129.11162791 -32.59832312 131.67445971 -47.05859375 131.546875 C-48.89284912 131.53442749 -48.89284912 131.53442749 -50.76416016 131.52172852 C-69.81033171 131.16790237 -88.53207636 126.11210778 -102.30859375 112.109375 C-118.28961232 93.5015025 -121.7884727 72.01049243 -120.30859375 48.109375 C-118.48353065 28.81472942 -109.9203127 10.59873348 -94.89453125 -1.8984375 C-67.66243646 -21.86864034 -26.19213743 -21.45007532 0 0 Z"/>
<path transform="translate(379.58203125,492.90234375)" fill="#F8FAFD" d="M0 0 C1.23758308 0.00212242 1.23758308 0.00212242 2.50016785 0.00428772 C5.07697538 0.009784 7.65368851 0.02231475 10.23046875 0.03515625 C12.00195185 0.04018473 13.77343634 0.04474523 15.54492188 0.04882812 C19.83597262 0.05971905 24.12695481 0.07690821 28.41796875 0.09765625 C32.72235543 8.93351956 35.44031385 18.23845201 38.35546875 27.59765625 C38.92985591 29.42750461 39.50481819 31.25717253 40.08032227 33.08666992 C41.27323697 36.8804862 42.46369278 40.67506062 43.65234375 44.47021484 C46.1027881 52.28813155 48.58139622 60.09708164 51.06069946 67.90588379 C51.85602778 70.41191771 52.65022181 72.91830844 53.4440918 75.42480469 C56.38713955 84.71449717 59.34372269 93.99974717 62.3125 103.28125 C63.28230369 106.31663355 64.25191249 109.35207928 65.22146606 112.38754272 C65.84780802 114.34637847 66.47513291 116.30490021 67.10348511 118.26309204 C67.97632005 120.98323295 68.8458946 123.70439698 69.71484375 126.42578125 C69.97461502 127.23216537 70.23438629 128.0385495 70.50202942 128.86936951 C72.94545151 136.54260838 72.94545151 136.54260838 73.41796875 140.09765625 C71.32154932 142.19407568 66.75453986 141.28616209 63.859375 141.30078125 C62.57014381 141.30933136 62.57014381 141.30933136 61.25486755 141.3180542 C59.43318926 141.32751805 57.61149374 141.33404366 55.78979492 141.33789062 C52.9956291 141.34760355 50.20219633 141.37861633 47.40820312 141.41015625 C45.64193147 141.4166852 43.87565454 141.4219361 42.109375 141.42578125 C40.84994835 141.44430145 40.84994835 141.44430145 39.56507874 141.4631958 C37.20922852 141.45410156 37.20922852 141.45410156 33.41796875 141.09765625 C31.56018659 138.31098301 30.82374923 136.48131332 29.9453125 133.31640625 C29.68556641 132.39214844 29.42582031 131.46789062 29.15820312 130.515625 C28.89330078 129.55269531 28.62839844 128.58976563 28.35546875 127.59765625 C27.82336782 125.69128027 27.29083452 123.7850249 26.7578125 121.87890625 C26.52441162 121.03392578 26.29101074 120.18894531 26.05053711 119.31835938 C25.5510285 117.56477762 24.99455854 115.82742562 24.41796875 114.09765625 C9.23796875 113.76765625 -5.94203125 113.43765625 -21.58203125 113.09765625 C-22.57203125 117.05765625 -23.56203125 121.01765625 -24.58203125 125.09765625 C-26.23203125 130.37765625 -27.88203125 135.65765625 -29.58203125 141.09765625 C-41.46203125 141.09765625 -53.34203125 141.09765625 -65.58203125 141.09765625 C-64.92362184 136.48879037 -64.35969918 132.92010944 -62.98168945 128.63061523 C-62.48651573 127.07460098 -62.48651573 127.07460098 -61.9813385 125.4871521 C-61.61882492 124.36732941 -61.25631134 123.24750671 -60.8828125 122.09375 C-60.29414255 120.2507466 -59.70547547 118.40774227 -59.11691189 116.5647049 C-58.48433882 114.58740102 -57.8490683 112.61098234 -57.2130127 110.63479614 C-55.88082292 106.4952292 -54.55616537 102.3532797 -53.23339844 98.21069336 C-53.00825624 97.50560292 -52.78311405 96.80051249 -52.55114937 96.07405567 C-52.08904152 94.62671563 -51.62697078 93.17936374 -51.16493607 91.73200035 C-50.4535693 89.50426933 -49.74151727 87.27675815 -49.02938843 85.04927063 C-43.65289379 68.22404868 -38.36101098 51.37229114 -33.0724144 34.51927567 C-32.08587053 31.37580218 -31.09881073 28.2324908 -30.1117487 25.08917999 C-27.60060892 17.0923924 -25.09072926 9.09521023 -22.58203125 1.09765625 C-15.04163442 0.45000945 -7.56871624 -0.05112414 0 0 Z M0.41796875 36.09765625 C-2.84160712 45.90772594 -5.68923569 55.82993162 -8.39990234 65.8036499 C-8.77090591 67.16479566 -9.14524965 68.52503545 -9.52294922 69.88433838 C-10.06020543 71.82255985 -10.58309041 73.76474714 -11.10546875 75.70703125 C-11.41403809 76.84108398 -11.72260742 77.97513672 -12.04052734 79.14355469 C-12.8273338 82.28797014 -12.8273338 82.28797014 -11.58203125 86.09765625 C-3.00203125 86.09765625 5.57796875 86.09765625 14.41796875 86.09765625 C15.6024759 82.54413481 15.14951917 81.30782081 14.16015625 77.75 C13.86657227 76.67758057 13.57298828 75.60516113 13.27050781 74.50024414 C12.94791992 73.35676514 12.62533203 72.21328613 12.29296875 71.03515625 C11.97038086 69.87169678 11.64779297 68.7082373 11.31542969 67.50952148 C10.66147715 65.15233756 10.00458996 62.79596578 9.34472656 60.44042969 C8.51832965 57.45965347 7.72107381 54.47373792 6.94140625 51.48046875 C6.72371582 50.65683838 6.50602539 49.83320801 6.28173828 48.98461914 C5.88249619 47.4726128 5.4898779 45.95883664 5.10498047 44.44311523 C4.15601059 40.91903631 3.39830629 38.35003778 0.41796875 36.09765625 Z"/>
<path transform="translate(400,324)" fill="#FAFBFE" d="M0 0 C33 0 66 0 100 0 C100 10.23 100 20.46 100 31 C79.54 31 59.08 31 38 31 C38 39.25 38 47.5 38 56 C54.83 56 71.66 56 89 56 C89 65.24 89 74.48 89 84 C81.125 85.125 81.125 85.125 77.16625977 85.11352539 C76.2858754 85.11344986 75.40549103 85.11337433 74.49842834 85.11329651 C73.57211105 85.10813522 72.64579376 85.10297394 71.69140625 85.09765625 C70.72468491 85.0962413 69.75796356 85.09482635 68.76194763 85.09336853 C65.69543268 85.08780221 62.62899262 85.07525599 59.5625 85.0625 C57.47461043 85.05748065 55.38671972 85.0529185 53.29882812 85.04882812 C48.19916717 85.03869769 43.09966673 85.01911579 38 85 C38 93.91 38 102.82 38 112 C58.79 112 79.58 112 101 112 C102.09282967 115.27848901 102.1293042 117.71440316 102.1328125 121.1640625 C102.13410156 122.36804688 102.13539063 123.57203125 102.13671875 124.8125 C102.13285156 126.070625 102.12898438 127.32875 102.125 128.625 C102.12886719 129.89085937 102.13273437 131.15671875 102.13671875 132.4609375 C102.13542969 133.66234375 102.13414062 134.86375 102.1328125 136.1015625 C102.13168457 137.20838379 102.13055664 138.31520508 102.12939453 139.45556641 C102 142 102 142 101 143 C97.86436909 143.09535055 94.75089396 143.12549573 91.61499023 143.11352539 C90.61373895 143.11364593 89.61248766 143.11376646 88.58089542 143.11389065 C85.32343933 143.11314122 82.06603968 143.10551164 78.80859375 143.09765625 C76.80407743 143.09618692 74.79956073 143.09516616 72.79504395 143.09460449 C65.34252347 143.08935054 57.89001119 143.07538947 50.4375 143.0625 C33.793125 143.041875 17.14875 143.02125 0 143 C0 95.81 0 48.62 0 0 Z"/>
<path transform="translate(151,324)" fill="#FCFCFE" d="M0 0 C16.314375 -0.020625 32.62875 -0.04125 49.4375 -0.0625 C54.59689209 -0.071604 59.75628418 -0.08070801 65.07202148 -0.09008789 C71.35168457 -0.09460449 71.35168457 -0.09460449 74.28749084 -0.09544373 C76.34661576 -0.0969836 78.40573975 -0.10050939 80.46485901 -0.10557556 C83.57611671 -0.1128505 86.68731911 -0.1139075 89.79858398 -0.11352539 C90.72245376 -0.1171235 91.64632353 -0.12072161 92.59818935 -0.12442875 C98.88597366 -0.11402634 98.88597366 -0.11402634 100 1 C100.08783542 3.21855264 100.10694609 5.43988496 100.09765625 7.66015625 C100.0962413 8.32462265 100.09482635 8.98908905 100.09336853 9.6736908 C100.08775518 11.80333899 100.07520054 13.93288339 100.0625 16.0625 C100.05748671 17.50325369 100.05292351 18.94400903 100.04882812 20.38476562 C100.03778145 23.92321102 100.02050792 27.46159539 100 31 C93.96973965 33.65629706 87.84786693 33.35034795 81.3828125 33.4140625 C80.17051971 33.43342865 78.95822693 33.4527948 77.709198 33.4727478 C73.84786961 33.53239315 69.98651117 33.57886945 66.125 33.625 C63.50259137 33.66319356 60.88019509 33.70224609 58.2578125 33.7421875 C51.83860699 33.83969442 45.41952871 33.91938464 39 34 C39 42.58 39 51.16 39 60 C41.46128059 61.2306403 43.04986216 61.11401359 45.80102539 61.09765625 C47.29751366 61.09270142 47.29751366 61.09270142 48.82423401 61.08764648 C49.90446335 61.07934814 50.98469269 61.0710498 52.09765625 61.0625 C53.20225693 61.05871338 54.3068576 61.05492676 55.44493103 61.05102539 C58.98415954 61.03877249 62.52330807 61.02013765 66.0625 61 C70.72004977 60.97353844 75.37756007 60.95348029 80.03515625 60.9375 C81.65853661 60.92505249 81.65853661 60.92505249 83.31471252 60.91235352 C84.30921921 60.90905029 85.30372589 60.90574707 86.32836914 60.90234375 C87.20836075 60.89710693 88.08835236 60.89187012 88.99501038 60.88647461 C91 61 91 61 92 62 C92.08783542 64.21855264 92.10694609 66.43988496 92.09765625 68.66015625 C92.0962413 69.32462265 92.09482635 69.98908905 92.09336853 70.6736908 C92.08775518 72.80333899 92.07520054 74.93288339 92.0625 77.0625 C92.05748671 78.50325369 92.05292351 79.94400903 92.04882812 81.38476562 C92.03778145 84.92321102 92.02050792 88.46159539 92 92 C91.36550934 92.01030746 90.73101868 92.02061493 90.07730103 92.03123474 C83.49153038 92.13916135 76.90590041 92.25377035 70.3203125 92.37231445 C67.86038141 92.41570779 65.40041935 92.45737956 62.94042969 92.49731445 C59.41071216 92.55491057 55.88115124 92.61863557 52.3515625 92.68359375 C50.69370224 92.70866249 50.69370224 92.70866249 49.00234985 92.73423767 C47.98144257 92.75418289 46.96053528 92.77412811 45.90869141 92.79467773 C44.55633896 92.81799416 44.55633896 92.81799416 43.17666626 92.84178162 C40.95363699 92.86435092 40.95363699 92.86435092 39 94 C38.67 110.17 38.34 126.34 38 143 C25.46 143 12.92 143 0 143 C0 95.81 0 48.62 0 0 Z"/>
<path transform="translate(590,493)" fill="#FBFCFE" d="M0 0 C37.29 0 74.58 0 113 0 C113 9.9 113 19.8 113 30 C101.12 30.33 89.24 30.66 77 31 C76.67 67.3 76.34 103.6 76 141 C63.79 141 51.58 141 39 141 C38.97494385 137.70330322 38.9498877 134.40660645 38.92407227 131.01000977 C38.84077877 120.14540383 38.75207003 109.28084704 38.66066074 98.4163065 C38.60538055 91.82597632 38.55195255 85.23564176 38.50268555 78.64526367 C38.45511699 72.29104033 38.40277719 65.93687292 38.34705925 59.58271599 C38.32660156 57.15251995 38.30789427 54.72230855 38.29092598 52.29208565 C38.2669573 48.90112857 38.2368928 45.51027834 38.20532227 42.11938477 C38.19668907 40.59593193 38.19668907 40.59593193 38.18788147 39.04170227 C38.17809265 38.12318481 38.16830383 37.20466736 38.15821838 36.25831604 C38.15176583 35.45543435 38.14531328 34.65255266 38.1386652 33.82534122 C38.19788427 31.98071327 38.19788427 31.98071327 37 31 C34.26298822 30.83989519 31.5483241 30.74053172 28.80859375 30.68359375 C27.57883568 30.6524221 27.57883568 30.6524221 26.32423401 30.62062073 C23.69541099 30.55503506 21.06648496 30.49619874 18.4375 30.4375 C16.65949439 30.39432333 14.88149935 30.35070933 13.10351562 30.30664062 C8.73578128 30.19851829 4.36797309 30.09951272 0 30 C0 20.1 0 10.2 0 0 Z"/>
<path transform="translate(741,551)" fill="#1A39BE" d="M0 0 C2.52946314 2.14031496 3.74688128 3.68482643 4.37890625 6.96875 C4.58578901 10.5458197 4.32141401 12.58216179 2.125 15.4375 C-1.41699942 18.04191134 -3.58936125 18.43241556 -8 18 C-10.69990662 16.20006226 -12.5418865 14.916227 -14 12 C-14.43703704 4.13333333 -14.43703704 4.13333333 -12 1 C-7.87666784 -1.4739993 -4.56758491 -1.24570498 0 0 Z M-6 5 C-6 5.66 -6 6.32 -6 7 C-5.34 7 -4.68 7 -4 7 C-4 6.34 -4 5.68 -4 5 C-4.66 5 -5.32 5 -6 5 Z"/>
<path transform="translate(191.17030334472656,414.87974548339844)" fill="#AAC2EE" d="M0 0 C0.95708359 0.00222061 1.91416718 0.00444122 2.9002533 0.00672913 C3.98129837 0.00680466 5.06234344 0.00688019 6.17614746 0.00695801 C7.94018166 0.01469994 7.94018166 0.01469994 9.73985291 0.02259827 C10.93702438 0.02401321 12.13419586 0.02542816 13.36764526 0.02688599 C17.20918732 0.03250472 21.05067208 0.04506041 24.89219666 0.05775452 C27.48920102 0.0627671 30.0862063 0.06733043 32.68321228 0.07142639 C39.06539344 0.08248024 45.44754096 0.0992366 51.82969666 0.12025452 C51.82969666 0.45025452 51.82969666 0.78025452 51.82969666 1.12025452 C50.87796066 1.13571571 50.87796066 1.13571571 49.90699768 1.15148926 C43.32122704 1.25941586 36.73559707 1.37402486 30.15000916 1.49256897 C27.69007807 1.53596231 25.230116 1.57763407 22.77012634 1.61756897 C19.24040882 1.67516509 15.7108479 1.73889008 12.18125916 1.80384827 C11.07601898 1.82056076 9.97077881 1.83727325 8.83204651 1.85449219 C7.81113922 1.87443741 6.79023193 1.89438263 5.73838806 1.91493225 C4.38603561 1.93824867 4.38603561 1.93824867 3.00636292 1.96203613 C0.78333364 1.98460544 0.78333364 1.98460544 -1.17030334 3.12025452 C-1.50030334 19.29025452 -1.83030334 35.46025452 -2.17030334 52.12025452 C-14.71030334 52.12025452 -27.25030334 52.12025452 -40.17030334 52.12025452 C-40.17030334 51.79025452 -40.17030334 51.46025452 -40.17030334 51.12025452 C-27.96030334 51.12025452 -15.75030334 51.12025452 -3.17030334 51.12025452 C-3.18770569 45.72359436 -3.18770569 45.72359436 -3.20545959 40.21791077 C-3.21324892 36.74956857 -3.21932639 33.28122732 -3.22523499 29.81288147 C-3.23027683 27.39458279 -3.23711013 24.97628718 -3.2457428 22.55799866 C-3.25781491 19.09046168 -3.26353298 15.62296485 -3.26795959 12.15541077 C-3.27312088 11.06688309 -3.27828217 9.97835541 -3.28359985 8.85684204 C-3.28367538 7.85587997 -3.28375092 6.85491791 -3.28382874 5.82362366 C-3.28604935 4.93759964 -3.28826996 4.05157562 -3.29055786 3.13870239 C-3.12171376 0.30468807 -2.83540465 0.15710717 0 0 Z"/>
<path transform="translate(728,620)" fill="#040400" d="M0 0 C1.9375 1.0625 1.9375 1.0625 3 3 C2.875 6.5625 2.875 6.5625 2 10 C-1 12 -1 12 -4.0625 11.8125 C-7 11 -7 11 -9 8 C-9.35384949 5.16920408 -9.3920891 3.63169911 -7.875 1.1875 C-5.12844028 -0.55198782 -3.18153026 -0.39769128 0 0 Z"/>
<path transform="translate(741,551)" fill="#C3D1F4" d="M0 0 C2.52946314 2.14031496 3.74688128 3.68482643 4.37890625 6.96875 C4.58578901 10.5458197 4.32141401 12.58216179 2.125 15.4375 C-1.41699942 18.04191134 -3.58936125 18.43241556 -8 18 C-10.69990662 16.20006226 -12.5418865 14.916227 -14 12 C-14.43703704 4.13333333 -14.43703704 4.13333333 -12 1 C-7.87666784 -1.4739993 -4.56758491 -1.24570498 0 0 Z M-9.75 2.5625 C-12.31301244 4.88827139 -12.31301244 4.88827139 -12.5625 8.5 C-12.25025244 11.99047482 -12.25025244 11.99047482 -10.375 14.4375 C-7.28314769 16.47161336 -5.63632575 16.60605429 -2 16 C0.52006844 14.56338689 0.52006844 14.56338689 2 12 C2.75 8.5 2.75 8.5 2 5 C-0.12685929 2.4482714 -0.12685929 2.4482714 -3 1 C-6.9475115 0.67066039 -6.9475115 0.67066039 -9.75 2.5625 Z"/>
<path transform="translate(733,554)" fill="#EFF7FB" d="M0 0 C2.33944736 0.28730055 4.6739143 0.61936779 7 1 C7 1.99 7 2.98 7 4 C6.34 4 5.68 4 5 4 C5 3.34 5 2.68 5 2 C3.68 2 2.36 2 1 2 C1 2.99 1 3.98 1 5 C2.65 5 4.3 5 6 5 C6.33 6.65 6.66 8.3 7 10 C4.6739143 10.38063221 2.33944736 10.71269945 0 11 C-1 10 -1 10 -1.1328125 7.96875 C-1.13023437 7.1540625 -1.12765625 6.339375 -1.125 5.5 C-1.12757813 4.6853125 -1.13015625 3.870625 -1.1328125 3.03125 C-1 1 -1 1 0 0 Z"/>
<path transform="translate(736.8125,552.25)" fill="#0923B5" d="M0 0 C1.0828125 0.37125 1.0828125 0.37125 2.1875 0.75 C2.1875 1.08 2.1875 1.41 2.1875 1.75 C0.2075 2.08 -1.7725 2.41 -3.8125 2.75 C-3.86649736 4.20792884 -3.90529177 5.66642712 -3.9375 7.125 C-3.97230469 8.34316406 -3.97230469 8.34316406 -4.0078125 9.5859375 C-4.02620051 11.96342243 -4.02620051 11.96342243 -1.8125 13.75 C-4.67974686 13.17655063 -5.6739515 12.8885485 -7.8125 10.75 C-8.25 7.375 -8.25 7.375 -7.8125 3.75 C-5.2060604 0.77121189 -4.00695586 -0.35617385 0 0 Z"/>
<path transform="translate(732,556)" fill="#92A6EA" d="M0 0 C0.226875 0.639375 0.45375 1.27875 0.6875 1.9375 C1.85250896 4.27193661 1.85250896 4.27193661 4.625 4.75 C5.40875 4.8325 6.1925 4.915 7 5 C6.67 6.32 6.34 7.64 6 9 C4.33388095 9.042721 2.66617115 9.04063832 1 9 C0 8 0 8 -0.09765625 6.15234375 C-0.06510417 4.1015625 -0.03255208 2.05078125 0 0 Z"/>
<path transform="translate(744,562)" fill="#B1C2E8" d="M0 0 C0 3 0 3 -1.375 4.625 C-4.54487263 7.30719992 -6.94344355 7.08818601 -11 7 C-11.33 6.34 -11.66 5.68 -12 5 C-10.948125 4.9175 -9.89625 4.835 -8.8125 4.75 C-4.72952791 3.94679238 -2.9877273 2.80665291 0 0 Z"/>
<path transform="translate(728,555)" fill="#DAE8F7" d="M0 0 C0.66 0.33 1.32 0.66 2 1 C1.9071875 2.60875 1.9071875 2.60875 1.8125 4.25 C2.00543309 8.10866187 2.39665076 9.28817788 5 12 C2 12 2 12 0.3125 10.4375 C-1.44786618 7.16824853 -1.27594106 4.65621911 -1 1 C-0.67 0.67 -0.34 0.34 0 0 Z"/>
</svg>