<?xml version="1.0" encoding="UTF-8"?>
<svg version="1.1" xmlns="http://www.w3.org/2000/svg" width="804" height="433">
<path d="M0 0 C265.32 0 530.64 0 804 0 C804 142.89 804 285.78 804 433 C538.68 433 273.36 433 0 433 C0 290.11 0 147.22 0 0 Z " fill="#FEFEFE" transform="translate(0,0)"/>
<path d="M0 0 C1.31790024 -0.00087616 2.63580048 -0.00175232 3.99363708 -0.00265503 C7.58652285 -0.00436813 11.1781931 0.0307673 14.77079773 0.07278872 C18.53300724 0.11043921 22.29524834 0.11383228 26.05761719 0.12094116 C33.17268574 0.13954828 40.28719744 0.18872835 47.40202141 0.2490381 C57.02290641 0.32881075 66.64394499 0.36106331 76.26507759 0.39605141 C91.41020795 0.45237462 106.55416355 0.5719332 121.69921875 0.68115234 C121.69921875 37.97115234 121.69921875 75.26115234 121.69921875 113.68115234 C87.78645451 114.04387965 87.78645451 114.04387965 73.53710938 114.12060547 C63.71156366 114.17393725 53.88671432 114.23651162 44.06176758 114.36010742 C36.90507517 114.45009386 29.74894952 114.50794194 22.59170705 114.5279488 C18.80512076 114.53963623 15.02015513 114.56690189 11.23409081 114.63272285 C7.66226419 114.69430985 4.09270819 114.71256104 0.520401 114.69912148 C-1.39934953 114.70273683 -3.31885858 114.75091599 -5.23796082 114.80093384 C-14.86342773 114.6989644 -19.53229994 111.25721739 -26.30078125 104.68115234 C-27.79268574 103.43487213 -29.29450345 102.20020382 -30.8125 100.98583984 C-32.20456203 99.842775 -33.59649166 98.69954889 -34.98828125 97.55615234 C-35.68244141 96.98767578 -36.37660156 96.41919922 -37.09179688 95.83349609 C-40.67906601 92.88478093 -44.23846361 89.90603572 -47.7578125 86.87646484 C-48.41370361 86.3120166 -49.06959473 85.74756836 -49.74536133 85.16601562 C-52.36993673 82.66049567 -52.44343357 80.76467352 -52.52539062 77.26660156 C-52.54790894 76.35159882 -52.57042725 75.43659607 -52.59362793 74.49386597 C-52.66472755 70.29238157 -52.72219251 66.09107467 -52.76074219 61.88916016 C-52.7873085 59.67767634 -52.82818839 57.46631546 -52.88378906 55.25537109 C-52.96317379 52.06085302 -52.99609699 48.8687016 -53.01953125 45.67333984 C-53.05252319 44.69283661 -53.08551514 43.71233337 -53.11950684 42.70211792 C-53.10065273 36.17810319 -51.67627442 32.91227413 -47.06387329 28.27549744 C-44.80948663 26.23687992 -42.57113709 24.24213598 -40.17578125 22.36865234 C-35.38587354 18.56044511 -30.70334499 14.65559825 -26.06787109 10.66235352 C-25.0667529 9.80751816 -24.05603458 8.96377018 -23.0350647 8.13274574 C-21.28683878 6.70533871 -21.28683878 6.70533871 -19.70214844 5.13129234 C-13.58958567 -0.29962575 -7.90148264 -0.13817266 0 0 Z " fill="#FEE800" transform="translate(682.30078125,306.31884765625)"/>
<path d="M0 0 C100.01394422 0 100.01394422 0 118.08984375 16.9609375 C127.81263523 26.99152684 130.94264531 39.70030069 131.375 53.3125 C131.16490044 66.33867265 126.64585225 78.16341099 117.75 87.75 C114.25798404 91.05452517 110.31929513 93.40039399 106.13671875 95.73828125 C103.88652098 96.9472528 103.88652098 96.9472528 102 99 C110.55220195 113.8551567 119.13393162 128.69212036 127.78125 143.4921875 C128.29945313 144.3800293 128.81765625 145.26787109 129.3515625 146.18261719 C130.55087005 148.23238158 131.75458783 150.27956751 132.9609375 152.32519531 C133.60289062 153.41670898 134.24484375 154.50822266 134.90625 155.6328125 C135.49728516 156.6345752 136.08832031 157.63633789 136.69726562 158.66845703 C138 161 138 161 138 162 C122.16 162 106.32 162 90 162 C87.64875 157.71 85.2975 153.42 82.875 149 C76.81595254 137.97127786 70.61407028 127.04810623 64.16748047 116.24023438 C63.61721191 115.31146484 63.06694336 114.38269531 62.5 113.42578125 C62.0153125 112.61536377 61.530625 111.80494629 61.03125 110.9699707 C60 109 60 109 60 107 C53.4 107 46.8 107 40 107 C40 125.15 40 143.3 40 162 C26.8 162 13.6 162 0 162 C0 108.54 0 55.08 0 0 Z " fill="#003BA6" transform="translate(355,201)"/>
<path d="M0 0 C100.35294118 0 100.35294118 0 118.078125 16.9921875 C127.1378741 26.42103748 131.41758516 38.26597823 131.3125 51.25 C131.30404053 52.35807007 131.30404053 52.35807007 131.29541016 53.48852539 C131.00107725 66.91564304 126.46637587 78.31847922 117 88 C111.8668176 92.08066433 107.26259368 95.00209091 101 97 C103.06163284 100.68798542 105.12435983 104.37535761 107.1875 108.0625 C107.81736816 109.18833496 108.44723633 110.31416992 109.09619141 111.47412109 C112.78836287 118.06966928 116.49953093 124.65409823 120.23095703 131.22753906 C136 159.01889664 136 159.01889664 136 162 C129.63454236 162.43368505 123.27290866 162.72966523 116.89599609 162.93383789 C114.73178933 163.0189653 112.56855047 163.13473107 110.40771484 163.2824707 C93.03094887 164.44012063 93.03094887 164.44012063 88.10568237 160.47494507 C84.79641969 156.48779757 82.78639291 151.97077569 80.88977051 147.18313599 C79.65185354 144.14578976 78.0529865 141.35566513 76.42578125 138.51171875 C75.38512987 136.57186061 74.34732039 134.63047495 73.3125 132.6875 C69.38029556 125.35317194 65.40432435 118.08506516 61.07421875 110.9765625 C60 109 60 109 60 107 C53.4 107 46.8 107 40 107 C40 124.82 40 142.64 40 161 C26.8 161 13.6 161 0 161 C0 107.87 0 54.74 0 0 Z " fill="#003BA7" transform="translate(128,10)"/>
<path d="M0 0 C13.53 0 27.06 0 41 0 C41 20.13 41 40.26 41 61 C60.47 61 79.94 61 100 61 C100 40.87 100 20.74 100 0 C113.53 0 127.06 0 141 0 C141 53.46 141 106.92 141 162 C127.47 162 113.94 162 100 162 C100 140.88 100 119.76 100 98 C80.53 98 61.06 98 41 98 C41 118.79 41 139.58 41 161 C27.47 161 13.94 161 0 161 C0 107.87 0 54.74 0 0 Z " fill="#003BA7" transform="translate(551,10)"/>
<path d="M0 0 C0.86825912 0.00222061 1.73651825 0.00444122 2.63108826 0.00672913 C3.61202957 0.00680466 4.59297089 0.00688019 5.6036377 0.00695801 C6.6702916 0.01211929 7.7369455 0.01728058 8.83592224 0.02259827 C10.46520912 0.02472069 10.46520912 0.02472069 12.12741089 0.02688599 C15.61230674 0.03250403 19.09713941 0.04505959 22.58201599 0.05775452 C24.93813486 0.06276719 27.29425473 0.0673305 29.65037537 0.07142639 C35.44011063 0.08247933 41.2298088 0.09923501 47.01951599 0.12025452 C50.36542534 7.92606725 53.39890585 15.77358328 56.13670349 23.81166077 C56.69722664 25.44121201 56.69722664 25.44121201 57.26907349 27.10368347 C58.06698209 29.42465681 58.86316081 31.74622547 59.6577301 34.06834412 C61.34817089 39.0085256 63.04708684 43.94577936 64.74554443 48.88320923 C65.60817962 51.39106987 66.47039249 53.89907582 67.33218384 56.40722656 C70.75699471 66.37175836 74.21552611 76.32415818 77.6943512 86.26994324 C83.39354016 102.56378087 89.06617581 118.86681563 94.71968079 135.17655945 C95.54133574 137.54635865 96.36353603 139.91596885 97.18629456 142.28538513 C98.32883019 145.57617327 99.46937481 148.86764455 100.60935974 152.15931702 C100.95542267 153.15495163 101.3014856 154.15058624 101.65803528 155.1763916 C101.97060272 156.08035172 102.28317017 156.98431183 102.60520935 157.91566467 C102.87973434 158.70752167 103.15425934 159.49937866 103.43710327 160.31523132 C104.01951599 162.12025452 104.01951599 162.12025452 104.01951599 163.12025452 C88.83951599 163.12025452 73.65951599 163.12025452 58.01951599 163.12025452 C49.01951599 136.12025452 49.01951599 136.12025452 49.01951599 131.12025452 C30.86951599 131.12025452 12.71951599 131.12025452 -5.98048401 131.12025452 C-6.64048401 134.42025452 -7.30048401 137.72025452 -7.98048401 141.12025452 C-8.51560513 143.06153334 -9.08412357 144.99440577 -9.70704651 146.90931702 C-10.12591125 148.21183411 -10.12591125 148.21183411 -10.55323792 149.54066467 C-10.90047913 150.59817932 -11.24772034 151.65569397 -11.60548401 152.74525452 C-12.71923401 156.16900452 -13.83298401 159.59275452 -14.98048401 163.12025452 C-29.50048401 163.12025452 -44.02048401 163.12025452 -58.98048401 163.12025452 C-58.33066319 159.22132963 -57.82757174 156.29276475 -56.54444885 152.71522522 C-56.25198776 151.89175598 -55.95952667 151.06828674 -55.65820312 150.21986389 C-55.33916519 149.33750061 -55.02012726 148.45513733 -54.69142151 147.54603577 C-54.35647171 146.6065509 -54.02152191 145.66706604 -53.67642212 144.69911194 C-52.95262132 142.67047506 -52.22657329 140.64263886 -51.4985199 138.61552429 C-49.54382879 133.17271027 -47.60534208 127.72411846 -45.66407776 122.27650452 C-45.2679982 121.16656631 -44.87191864 120.05662811 -44.46383667 118.91305542 C-40.72861321 108.43801379 -37.06668916 97.93817423 -33.41798401 87.43275452 C-27.52838612 70.49122289 -21.54783401 53.58310238 -15.52125549 36.68983459 C-15.05065956 35.37017952 -15.05065956 35.37017952 -14.57055664 34.02386475 C-13.95450765 32.29645327 -13.33811098 30.56916574 -12.72134399 28.8420105 C-11.12598848 24.36681341 -9.54801472 19.88622032 -7.99220276 15.39710999 C-7.67038025 14.46990646 -7.34855774 13.54270294 -7.01698303 12.58740234 C-6.40053774 10.80815789 -5.78658197 9.02804845 -5.1754303 7.24697876 C-2.72160858 0.16525542 -2.72160858 0.16525542 0 0 Z " fill="#013BA7" transform="translate(238.98048400878906,199.87974548339844)"/>
<path d="M0 0 C1.92295898 -0.0309375 1.92295898 -0.0309375 3.88476562 -0.0625 C15.65060715 -0.11001476 27.14724717 1.28534549 37.6875 6.8125 C38.35370361 7.15619629 39.01990723 7.49989258 39.70629883 7.85400391 C49.37707181 13.10682962 56.81465293 20.74963431 60.4375 31.25 C62.15803981 37.63558069 63.4375 43.62291411 63.4375 50.25 C50.8975 50.25 38.3575 50.25 25.4375 50.25 C23.7875 46.95 22.1375 43.65 20.4375 40.25 C13.58248796 34.87351997 4.58837448 33.74034401 -3.97265625 33.9296875 C-10.86346415 34.78194428 -16.93739591 36.98194422 -21.5625 42.25 C-23.13705739 45.39911479 -22.91049118 47.77008816 -22.5625 51.25 C-18.56329855 58.39143115 -11.10591329 60.63029695 -3.53186035 62.84332275 C1.76200239 64.26401615 7.09947779 65.50775656 12.4375 66.75 C31.24797291 71.12749894 51.98236028 76.37545093 63.0390625 93.76953125 C69.22959912 105.55327201 70.43772032 118.24036278 66.8125 131.125 C61.77026624 145.52886357 51.56359116 154.67045425 38.20703125 161.41308594 C33.7650671 163.51394867 29.1929169 165.04322335 24.4375 166.25 C23.74865723 166.42515137 23.05981445 166.60030273 22.35009766 166.78076172 C-1.0105576 172.13275325 -26.23040191 168.99423129 -46.5625 156.25 C-56.52195951 149.09002587 -62.39571917 140.01908098 -65.5625 128.25 C-65.789375 127.445625 -66.01625 126.64125 -66.25 125.8125 C-66.75707201 121.65450951 -66.5625 117.4387954 -66.5625 113.25 C-53.6925 113.25 -40.8225 113.25 -27.5625 113.25 C-26.2425 116.55 -24.9225 119.85 -23.5625 123.25 C-17.57086782 130.13400293 -9.63778804 132.42765438 -0.734375 133.6328125 C6.90257732 133.96776655 16.24594049 132.63084635 22.3359375 127.71875 C24.9994794 124.57792603 26.3663483 122.00420801 26.75 117.9375 C26.37511913 113.51390573 25.67317726 112.24300147 22.4375 109.25 C15.23692177 104.92790322 7.50104261 103.48559465 -0.625 101.8125 C-21.12199061 97.56803471 -44.15099282 92.4168864 -57.40234375 74.8046875 C-64.73315599 63.36933735 -66.66891389 50.3683096 -63.90625 37.09765625 C-59.23440473 23.06198318 -50.5221866 13.72511506 -37.5625 6.9375 C-25.19206272 1.09369908 -13.5618923 0.05341957 0 0 Z " fill="#013BA7" transform="translate(468.5625,6.75)"/>
<path d="M0 0 C12.02954948 9.90980508 20.50176627 23.50267569 22.5625 39.125 C22.5625 42.425 22.5625 45.725 22.5625 49.125 C8.3725 49.125 -5.8175 49.125 -20.4375 49.125 C-22.0875 44.505 -23.7375 39.885 -25.4375 35.125 C-30.85650392 27.84043736 -36.36169536 22.85372469 -45.4375 21.125 C-56.40007036 20.46137525 -65.38895642 20.54769824 -74.1875 27.6875 C-83.12094835 36.21629738 -86.42825165 48.35908909 -86.90625 60.41796875 C-86.94034201 63.05248651 -86.95524005 65.67865878 -86.9375 68.3125 C-86.93606995 68.99587433 -86.93463989 69.67924866 -86.9331665 70.3833313 C-86.84936558 86.54673039 -84.4167897 99.1457103 -72.6875 110.875 C-62.96611348 117.60519066 -53.15140274 118.5440878 -41.53515625 116.65234375 C-34.30919258 114.79296635 -28.45845246 110.91551918 -23.75 105.125 C-20.50863353 99.51831206 -18.615688 93.2239264 -16.4375 87.125 C-3.2375 87.125 9.9625 87.125 23.5625 87.125 C23.5625 106.42415221 19.11831799 120.62310557 5.609375 134.33203125 C-11.79307164 150.92964287 -35.12778843 154.99259083 -58.14453125 154.46484375 C-78.57041171 153.61136086 -97.60607319 144.66683342 -111.625 129.875 C-128.49024162 109.94953309 -132.00516281 83.36209929 -130.4375 58.125 C-129.46046819 46.85866761 -127.26076416 36.42107966 -122.4375 26.125 C-122.01855469 25.19558594 -121.59960938 24.26617187 -121.16796875 23.30859375 C-112.8085677 6.3729772 -97.67553615 -4.23658037 -80.4375 -10.875 C-53.16673674 -19.50339392 -23.57733573 -16.43410332 0 0 Z " fill="#013BA7" transform="translate(157.4375,212.875)"/>
<path d="M0 0 C36.3 0 72.6 0 110 0 C110 11.88 110 23.76 110 36 C87.23 36 64.46 36 41 36 C41 44.91 41 53.82 41 63 C60.14 63 79.28 63 99 63 C99 73.23 99 83.46 99 94 C79.86 94 60.72 94 41 94 C41 104.56 41 115.12 41 126 C64.43 126 87.86 126 112 126 C112 137.88 112 149.76 112 162 C75.04 162 38.08 162 0 162 C0 108.54 0 55.08 0 0 Z " fill="#003BA7" transform="translate(278,10)"/>
<path d="M0 0 C35.97 0 71.94 0 109 0 C109 11.88 109 23.76 109 36 C86.89 36 64.78 36 42 36 C42 45.9 42 55.8 42 66 C61.8 66 81.6 66 102 66 C102 77.55 102 89.1 102 101 C82.2 101 62.4 101 42 101 C42 121.13 42 141.26 42 162 C28.14 162 14.28 162 0 162 C0 108.54 0 55.08 0 0 Z " fill="#003BA6" transform="translate(1,10)"/>
<path d="M0 0 C42.57 0 85.14 0 129 0 C129 11.88 129 23.76 129 36 C115.47 36 101.94 36 88 36 C88 77.91 88 119.82 88 163 C73.15 163 58.3 163 43 163 C43 121.09 43 79.18 43 36 C28.81 36 14.62 36 0 36 C0 24.12 0 12.24 0 0 Z " fill="#003DA7" transform="translate(497,200)"/>
<path d="M0 0 C7.363125 -0.0928125 7.363125 -0.0928125 14.875 -0.1875 C16.40237793 -0.21481201 17.92975586 -0.24212402 19.50341797 -0.27026367 C37.00185502 -0.37652948 37.00185502 -0.37652948 42.63623047 4.38183594 C47.55035973 9.98742699 48.51707041 14.67201646 48.375 21.953125 C47.80540176 26.58111074 46.19734525 29.64035296 43 33 C34.04089944 39.67540826 23.11844924 39.27947382 12.375 39.125 C8.29125 39.08375 4.2075 39.0425 0 39 C0 26.13 0 13.26 0 0 Z " fill="#FBFCFD" transform="translate(395,236)"/>
<path d="M0 0 C8.1984375 -0.0928125 8.1984375 -0.0928125 16.5625 -0.1875 C19.12946655 -0.22846802 19.12946655 -0.22846802 21.74829102 -0.27026367 C23.12515561 -0.27903653 24.50202807 -0.28667857 25.87890625 -0.29296875 C26.92637024 -0.3159906 26.92637024 -0.3159906 27.99499512 -0.33947754 C33.15108776 -0.34218889 36.5096507 0.65084524 41 3 C45.91584952 7.91584952 47.71219471 12.02601203 48.375 18.875 C48.19985427 24.26330684 46.22940714 28.60702223 42.5625 32.54296875 C34.34349011 39.28018599 22.31640662 38.26988195 12.3125 38.125 C8.249375 38.08375 4.18625 38.0425 0 38 C0 25.46 0 12.92 0 0 Z " fill="#FAFBFD" transform="translate(168,46)"/>
<path d="M0 0 C1.94159647 2.91239471 2.71943225 5.0002377 3.67993164 8.32592773 C3.99688492 9.41393173 4.3138382 10.50193573 4.64039612 11.62290955 C5.14517738 13.38544823 5.14517738 13.38544823 5.66015625 15.18359375 C6.0100914 16.39064468 6.36002655 17.59769562 6.7205658 18.84132385 C7.6494835 22.04940642 8.57379963 25.2587443 9.49603271 28.46875 C10.2486821 31.08457356 11.00574429 33.69910959 11.76307011 36.31358242 C13.32982204 41.72261325 14.89304422 47.13266445 16.44946289 52.54467773 C16.72544815 53.50381577 17.00143341 54.4629538 17.28578186 55.45115662 C17.89462864 57.62395931 18.45271978 59.8108791 19 62 C6.79 62 -5.42 62 -18 62 C-13.38611199 43.54444795 -13.38611199 43.54444795 -10.80078125 34.62890625 C-10.52026413 33.65509506 -10.23974701 32.68128387 -9.95072937 31.67796326 C-9.3682288 29.65884137 -8.78431287 27.64012725 -8.19897461 25.62182617 C-7.29925129 22.51677717 -6.40624591 19.40984515 -5.51367188 16.30273438 C-4.94310462 14.32801046 -4.37215585 12.35339672 -3.80078125 10.37890625 C-3.53413162 9.44994034 -3.26748199 8.52097443 -2.99275208 7.56385803 C-2.7454686 6.71464279 -2.49818512 5.86542755 -2.2434082 4.99047852 C-1.91842094 3.8670681 -1.91842094 3.8670681 -1.58686829 2.72096252 C-1 1 -1 1 0 0 Z " fill="#FBFCFD" transform="translate(260,239)"/>
<path d="M0 0 C42.57 0 85.14 0 129 0 C129 11.88 129 23.76 129 36 C115.47 36 101.94 36 88 36 C88 77.91 88 119.82 88 163 C73.15 163 58.3 163 43 163 C43 121.42 43 79.84 43 37 C43.33 37 43.66 37 44 37 C44 78.25 44 119.5 44 162 C57.86 162 71.72 162 86 162 C85.99476318 158.18832275 85.98952637 154.37664551 85.98413086 150.44946289 C85.96759839 137.88855525 85.95647933 125.32764779 85.94818783 112.76673222 C85.94302486 105.14729827 85.93598216 97.52787461 85.92456055 89.90844727 C85.91461372 83.26971173 85.90814658 76.63098363 85.90591151 69.99224085 C85.90460439 66.47495664 85.90151853 62.95769374 85.89426994 59.44041634 C85.88625611 55.52025062 85.88600886 51.60010601 85.88647461 47.67993164 C85.88287933 46.50533386 85.87928406 45.33073608 85.87557983 44.12054443 C85.8769545 43.05898636 85.87832916 41.99742828 85.87974548 40.90370178 C85.87882369 39.97545625 85.8779019 39.04721071 85.87695217 38.09083652 C86 36 86 36 87 35 C90.02977804 34.91128727 93.03667022 34.8848065 96.06640625 34.90234375 C96.97502914 34.9037587 97.88365204 34.90517365 98.81980896 34.90663147 C101.73407221 34.91224807 104.64825981 34.92480335 107.5625 34.9375 C109.53320202 34.94251286 111.50390524 34.94707614 113.47460938 34.95117188 C118.31645914 34.96137383 123.15814447 34.98094591 128 35 C128 24.11 128 13.22 128 2 C86.42 2 44.84 2 2 2 C2 12.89 2 23.78 2 35 C15.53 35 29.06 35 43 35 C43 35.33 43 35.66 43 36 C28.81 36 14.62 36 0 36 C0 24.12 0 12.24 0 0 Z " fill="#1731A0" transform="translate(497,200)"/>
<path d="M0 0 C3.06471302 1.65023009 5.30778907 3.056076 7.375 5.875 C8.69601084 10.36643685 8.48383625 13.10144696 6.25 17.25 C3.25670518 20.90847144 1.71641956 21.81740217 -2.9375 22.3125 C-6.52375446 21.94655567 -8.2027603 21.26803219 -11 19 C-13.33117811 15.58093877 -14 13.58956112 -14 9.4375 C-12.81383817 5.36006871 -11.23715865 3.68447302 -8 1 C-5.13391871 -0.43304064 -3.18699217 -0.30644155 0 0 Z " fill="#8A95CA" transform="translate(668,275)"/>
<path d="M0 0 C23.43 0 46.86 0 71 0 C71 11.88 71 23.76 71 36 C34.04 36 -2.92 36 -41 36 C-41 35.67 -41 35.34 -41 35 C-4.3257453 34.18954083 32.31714737 33.87228407 69 34 C69 23.11 69 12.22 69 1 C46.23 1 23.46 1 0 1 C0 0.67 0 0.34 0 0 Z " fill="#1E3DA5" transform="translate(319,136)"/>
<path d="M0 0 C2.4375 2.125 2.4375 2.125 4 5 C4.07517661 9.2850666 3.69099731 11.23003157 0.8125 14.4375 C-2.56275179 16.31263988 -4.2007634 16.71235686 -8 16 C-11.32878632 13.53959272 -12.79301948 12.10389613 -13.5625 8 C-12.87206143 4.31766096 -11.63186072 2.63186072 -9 0 C-5.39297148 -1.20234284 -3.64185324 -1.0405295 0 0 Z " fill="#FEFDF7" transform="translate(658,358)"/>
<path d="M0 0 C0.66 0 1.32 0 2 0 C2 11.55 2 23.1 2 35 C-14.14156749 35.08021762 -14.14156749 35.08021762 -21.0078125 35.09765625 C-25.69796254 35.10962443 -30.38803469 35.12380169 -35.078125 35.15087891 C-38.85823039 35.17256661 -42.63825228 35.18455998 -46.41841507 35.18975449 C-47.86255839 35.19345759 -49.306697 35.2006886 -50.7508049 35.21146011 C-52.76920894 35.22592017 -54.78769652 35.22681645 -56.80615234 35.22705078 C-58.53156754 35.23371262 -58.53156754 35.23371262 -60.2918396 35.24050903 C-63 35 -63 35 -65 33 C-43.55 33 -22.1 33 0 33 C0 22.11 0 11.22 0 0 Z " fill="#01299E" transform="translate(108,11)"/>
<path d="M0 0 C0.66 0.66 1.32 1.32 2 2 C1.9765625 4.6015625 1.9765625 4.6015625 1.625 7.625 C1.51414062 8.62789063 1.40328125 9.63078125 1.2890625 10.6640625 C1.19367187 11.43492187 1.09828125 12.20578125 1 13 C1.66 13 2.32 13 3 13 C3 11.35 3 9.7 3 8 C4.875 8.25 4.875 8.25 7 9 C8.125 11 8.125 11 9 13 C9.66 13.33 10.32 13.66 11 14 C10.67 14.99 10.34 15.98 10 17 C2.90225564 17.60150376 2.90225564 17.60150376 -1 15 C-3.75777063 10.86334406 -3.62388198 8.91307062 -3 4 C-1.5 1.5 -1.5 1.5 0 0 Z " fill="#CBDAEE" transform="translate(659,278)"/>
<path d="M0 0 C3.43015461 2.80649013 3.4009765 4.20292951 5 9 C-10.18 9 -25.36 9 -41 9 C-41 8.01 -41 7.02 -41 6 C-26.81 6 -12.62 6 2 6 C1.34 4.02 0.68 2.04 0 0 Z " fill="#2643A8" transform="translate(259,163)"/>
<path d="M0 0 C2 3 2 3 3 14 C-9.54 14 -22.08 14 -35 14 C-34.67 12.68 -34.34 11.36 -34 10 C-34 10.66 -34 11.32 -34 12 C-22.45 12 -10.9 12 1 12 C0.505 6.06 0.505 6.06 0 0 Z " fill="#06289F" transform="translate(529,43)"/>
<path d="M0 0 C2.97 0 5.94 0 9 0 C9.70074844 3.153368 10 5.72724974 10 9 C10.33 9.66 10.66 10.32 11 11 C9.68 11 8.36 11 7 11 C6.731875 10.360625 6.46375 9.72125 6.1875 9.0625 C5.11332248 6.66868314 5.11332248 6.66868314 2 6 C2 7.65 2 9.3 2 11 C1.34 11 0.68 11 0 11 C0 7.37 0 3.74 0 0 Z " fill="#0B2C9E" transform="translate(660,280)"/>
<path d="M0 0 C0.66 0.66 1.32 1.32 2 2 C1.9765625 4.8203125 1.9765625 4.8203125 1.625 8.125 C1.51414062 9.22070312 1.40328125 10.31640625 1.2890625 11.4453125 C1.14597656 12.70988281 1.14597656 12.70988281 1 14 C0.01 14 -0.98 14 -2 14 C-3.58873246 10.82253509 -3.41026221 7.45987798 -3 4 C-1.5 1.5 -1.5 1.5 0 0 Z " fill="#F8F9FC" transform="translate(659,278)"/>
<path d="M0 0 C0.66 0.66 1.32 1.32 2 2 C-0.77171776 4.97703018 -3.51075252 6.94223867 -7 9 C-8.75149165 10.58245275 -8.75149165 10.58245275 -10 12 C-10.99 11.67 -11.98 11.34 -13 11 C-8.71 7.37 -4.42 3.74 0 0 Z " fill="#FDE410" transform="translate(661,313)"/>
<path d="M0 0 C0.33 0.99 0.66 1.98 1 3 C2.11375 2.814375 2.11375 2.814375 3.25 2.625 C6 3 6 3 8.3125 6 C9.1478125 7.485 9.1478125 7.485 10 9 C8.68 9 7.36 9 6 9 C5.731875 8.360625 5.46375 7.72125 5.1875 7.0625 C4.11332248 4.66868314 4.11332248 4.66868314 1 4 C1 5.65 1 7.3 1 9 C0.34 8.67 -0.32 8.34 -1 8 C-0.67 5.36 -0.34 2.72 0 0 Z " fill="#071D93" transform="translate(661,282)"/>
<path d="M0 0 C0.66 0.33 1.32 0.66 2 1 C2 1.66 2 2.32 2 3 C1.34 3 0.68 3 0 3 C-0.433125 4.8253125 -0.433125 4.8253125 -0.875 6.6875 C-1.67835792 9.91814648 -2.66265409 12.94320935 -4 16 C-5.27710684 12.16867948 -4.44164418 10.64332645 -3.125 6.875 C-2.75632813 5.79992187 -2.38765625 4.72484375 -2.0078125 3.6171875 C-1 1 -1 1 0 0 Z " fill="#072098" transform="translate(199,308)"/>
<path d="M0 0 C2 0 2 0 3.625 1.5 C4.07875 1.995 4.5325 2.49 5 3 C4.67 3.99 4.34 4.98 4 6 C2.35 6 0.7 6 -1 6 C-1.33 5.01 -1.66 4.02 -2 3 C-1.34 2.01 -0.68 1.02 0 0 Z " fill="#FBFCFD" transform="translate(665,289)"/>
<path d="M0 0 C0.66 0.99 1.32 1.98 2 3 C1.3503125 3.99 1.3503125 3.99 0.6875 5 C-1.32464663 8.57714956 -2.62428695 12.13490142 -4 16 C-5.16161779 13.13421241 -4.9946154 11.98369837 -4.00390625 8.984375 C-3.52824219 7.91703125 -3.05257812 6.8496875 -2.5625 5.75 C-2.08941406 4.67234375 -1.61632812 3.5946875 -1.12890625 2.484375 C-0.75636719 1.66453125 -0.38382813 0.8446875 0 0 Z " fill="#082199" transform="translate(218,254)"/>
<path d="M0 0 C4.97093824 0.41153737 9.44508386 0.79600832 14 3 C10.8035914 4.06546953 8.34252724 4.07427838 5 4 C4.67 3.01 4.34 2.02 4 1 C1.98491642 0.26676204 1.98491642 0.26676204 0 0 Z " fill="#061E96" transform="translate(483,75)"/>
<path d="M0 0 C1.98 0 3.96 0 6 0 C5.67 0.99 5.34 1.98 5 3 C3.35 3 1.7 3 0 3 C0 2.01 0 1.02 0 0 Z " fill="#D1DFF0" transform="translate(662,282)"/>
<path d="M0 0 C1.21744727 3.65234182 0.64202228 4.62953322 -1 8 C-1.66 8.66 -2.32 9.32 -3 10 C-2.69201674 8.51988629 -2.378482 7.04092675 -2.0625 5.5625 C-1.88847656 4.73878906 -1.71445313 3.91507813 -1.53515625 3.06640625 C-1 1 -1 1 0 0 Z " fill="#052199" transform="translate(223,240)"/>
</svg>
